<?xml version="1.0" encoding="UTF-8"?>
<svg width="51px" height="68px" viewBox="0 0 51 68" version="1.1" xmlns="http://www.w3.org/2000/svg" xmlns:xlink="http://www.w3.org/1999/xlink">
    <!-- Generator: Sketch 48.1 (47250) - http://www.bohemiancoding.com/sketch -->
    <title>Artboard 4 Copy 2</title>
    <desc>Created with Sketch.</desc>
    <defs></defs>
    <g id="Desktop" stroke="none" stroke-width="1" fill="none" fill-rule="evenodd">
        <g id="Artboard-4-Copy-2" fill="#7A6D75">
            <g id="Page-1">
                <path d="M27.5377867,63.8819835 L27.5377867,55.758306 L41.7313438,42.8428016 C42.5453689,42.1027046 42.6052022,40.8423922 41.8662824,40.0272903 C41.1265258,39.2129218 39.8688768,39.1530017 39.0548516,39.8922606 L27.5377867,50.3718874 L27.5377867,36.9792221 L36.4508497,28.8691627 C37.2640381,28.1290658 37.3247082,26.8687534 36.5857884,26.0536515 C35.8460318,25.240121 34.5882782,25.1800961 33.7743576,25.9186218 L27.5377867,31.5926987 L27.5377867,6.99508017 C33.6916161,12.8231476 46.5068116,26.8942089 46.5068116,42.9890401 C46.5068116,53.8906217 38.1642566,62.8749697 27.5377867,63.8819835 Z M5.66381543,49.6270764 L18.9152079,62.8977017 C12.6833442,60.81045 7.746996,55.8676706 5.66381543,49.6270764 Z M23.5573062,6.99497541 L23.5573062,13.3028226 L20.408215,10.1492657 C21.5635617,8.92729376 22.6354347,7.86800702 23.5573062,6.99497541 Z M17.3177018,13.6114321 C17.8824566,12.9404736 18.4411444,12.2996848 18.9883258,11.6903225 L23.5573062,16.2659342 L23.5573062,19.8600925 L17.3177018,13.6114321 Z M14.4469608,17.2414166 C14.9574263,16.5520213 15.4714484,15.8845198 15.9847382,15.2395407 L23.5573062,22.8230993 L23.5573062,26.3649846 L14.4469608,17.2414166 Z M11.6854259,21.2687385 C12.1831298,20.4805588 12.6930723,19.7125968 13.2106509,18.9663193 L23.5573062,29.3279915 L23.5573062,31.5935368 L23.5221594,31.5615864 L23.5221594,33.1226515 L11.6854259,21.2687385 Z M9.20422867,25.5999558 C9.63979803,24.7530083 10.0956605,23.9233454 10.5675273,23.1122243 L23.5221594,36.0856584 L23.5221594,36.9472717 L23.5573062,36.9792221 L23.5573062,39.9738651 L9.20422867,25.5999558 Z M7.3336026,29.6845789 C7.61749675,28.9775846 7.91833669,28.2798088 8.23455335,27.59188 L23.5573062,42.9368719 L23.5573062,45.9318292 L7.3336026,29.6845789 Z M5.78348194,34.2965407 C6.0063922,33.4694967 6.25733622,32.6520902 6.53212986,31.8449498 L23.5573062,48.8948361 L23.5573062,50.3726207 L23.5221594,50.3406703 L23.5221594,52.0609637 L5.78348194,34.2965407 Z M4.85794935,39.7435079 L4.74926621,39.8523488 C4.8566941,38.7891861 5.0168422,37.7372322 5.22270208,36.6979538 L23.5221594,55.0239705 L23.5221594,55.725727 L23.5580384,55.758306 L23.5580384,58.4708426 L4.85794935,39.7435079 Z M4.58828128,42.9890401 C4.58828128,42.8067657 4.5918378,42.6250151 4.59508052,42.4432644 L23.5580384,61.4338495 L23.5580384,63.8828216 C23.5461136,63.8816692 23.5341888,63.8800979 23.5221594,63.8789456 C23.2684957,63.8544328 23.016401,63.823949 22.7653524,63.7904273 L4.77332504,45.7722867 C4.65219408,44.8613336 4.58828128,43.9325721 4.58828128,42.9890401 Z M27.3924923,1.50547749 C27.0668613,1.23437048 26.8545161,1.06519049 26.7780508,1.00495613 L25.5474942,0.0347114932 L24.3169375,1.00495613 C23.3482036,1.76893736 0.608637558,19.9646384 0.608637558,42.9890401 C0.608637558,55.6644451 10.0852001,66.1634517 22.3152431,67.7555244 C23.3735177,67.8932778 24.4522945,67.9650353 25.5474942,67.9650353 C39.299101,67.9650353 50.4864553,56.7613391 50.4864553,42.9890401 C50.4864553,21.7815162 31.19431,4.67087181 27.3924923,1.50547749 Z" id="Fill-1"></path>
            </g>
        </g>
    </g>
</svg>