<?xml version="1.0" encoding="UTF-8"?>
<svg width="80px" height="81px" viewBox="0 0 80 81" version="1.1" xmlns="http://www.w3.org/2000/svg" xmlns:xlink="http://www.w3.org/1999/xlink">
    <!-- Generator: Sketch 48.1 (47250) - http://www.bohemiancoding.com/sketch -->
    <title>Artboard 4</title>
    <desc>Created with Sketch.</desc>
    <defs></defs>
    <g id="Desktop" stroke="none" stroke-width="1" fill="none" fill-rule="evenodd">
        <g id="Artboard-4" fill="#7A6D75">
            <g id="Page-1">
                <path d="M64.2131717,50.8034358 L64.744054,50.8034358 L65.5271241,52.79273 L66.3114329,50.8034358 L66.8410766,50.8034358 L66.8410766,53.2947119 L66.4803838,53.2947119 L66.4803838,51.3117531 L66.4678735,51.3117531 L65.6721692,53.2947119 L65.382079,53.2947119 L64.5863748,51.3117531 L64.5751031,51.3117531 L64.5751031,53.2947119 L64.2131717,53.2947119 L64.2131717,50.8034358 Z M62.6217632,51.1297675 L61.8374544,51.1297675 L61.8374544,50.8034358 L63.7667647,50.8034358 L63.7667647,51.1297675 L62.982456,51.1297675 L62.982456,53.2947119 L62.6217632,53.2947119 L62.6217632,51.1297675 Z M52.6991182,56.3349259 C53.165715,56.958397 53.942468,57.981491 56.3598036,57.981491 C57.6031534,57.981491 59.2991034,57.6260913 59.2991034,56.369087 C59.2991034,53.9106055 52.266584,56.0680966 52.266584,52.7863947 C52.266584,51.0626876 53.8529141,50.3608322 56.0495235,50.3608322 C58.1793701,50.3608322 59.4882442,51.2397042 60.0431562,52.0187015 L59.3331661,52.5979496 C59.0002188,52.2185751 58.2234658,51.1840526 56.0268564,51.1840526 C54.4077023,51.1840526 53.2653019,51.6077745 53.2653019,52.6308685 C53.2653019,55.0779215 60.2978212,52.7420474 60.2978212,56.369087 C60.2978212,57.725966 58.9889472,58.8489346 56.2488212,58.8489346 C53.6095208,58.8489346 52.6323553,57.7474564 51.9450323,56.9798875 L52.6991182,56.3349259 Z M43.3791968,50.5619479 L50.5667943,50.5619479 L50.5667943,51.4293915 L44.3552475,51.4293915 L44.3552475,54.0104802 L49.5466479,54.0104802 L49.5466479,54.878048 L44.3552475,54.878048 L44.3552475,57.7816175 L50.7004439,57.7816175 L50.7004439,58.6491853 L43.3791968,58.6491853 L43.3791968,50.5619479 Z M34.1690193,50.5619479 L41.3566167,50.5619479 L41.3566167,51.4293915 L35.1449461,51.4293915 L35.1449461,54.0104802 L40.3364704,54.0104802 L40.3364704,54.878048 L35.1449461,54.878048 L35.1449461,57.7816175 L41.4902663,57.7816175 L41.4902663,58.6491853 L34.1690193,58.6491853 L34.1690193,50.5619479 Z M24.8780822,54.1989253 L28.3382313,54.1989253 C29.7479309,54.1989253 30.8009013,53.999176 30.8009013,52.8091274 C30.8009013,51.629265 29.7479309,51.4293915 28.3382313,51.4293915 L24.8780822,51.4293915 L24.8780822,54.1989253 Z M23.9020315,50.5619479 L28.5600723,50.5619479 C29.8476417,50.5619479 31.7327324,50.8400814 31.7327324,52.8191894 C31.7327324,54.5113441 30.1691934,55.0007795 29.1931427,55.0450026 L31.8551103,58.6491853 L30.6458232,58.6491853 L28.0507423,55.066493 L24.8780822,55.066493 L24.8780822,58.6491853 L23.9020315,58.6491853 L23.9020315,50.5619479 Z M17.1545239,51.4293915 L13.2618407,51.4293915 L13.2618407,50.5619479 L22.0244965,50.5619479 L22.0244965,51.4293915 L18.1318132,51.4293915 L18.1318132,58.6491853 L17.1545239,58.6491853 L17.1545239,51.4293915 Z M50.7963148,37.1264482 L46.9036316,37.1264482 L46.9036316,36.2590046 L55.6661635,36.2590046 L55.6661635,37.1264482 L51.7736041,37.1264482 L51.7736041,44.346242 L50.7963148,44.346242 L50.7963148,37.1264482 Z M41.1687146,43.6785478 C43.1320876,43.6785478 44.8961629,42.6327211 44.8961629,40.1742397 C44.8961629,38.3721484 43.5091305,36.8811094 41.1687146,36.8811094 C38.8282987,36.8811094 37.4412663,38.3721484 37.4412663,40.1742397 C37.4412663,42.6327211 39.1826744,43.6785478 41.1687146,43.6785478 Z M41.1687146,36.0578889 C43.9088406,36.0578889 45.8948807,37.6601067 45.8948807,40.3524985 C45.8948807,43.2232734 43.497735,44.5461156 41.1687146,44.5461156 C38.8396942,44.5461156 36.4437871,43.2232734 36.4437871,40.3524985 C36.4437871,37.6601067 38.4285886,36.0578889 41.1687146,36.0578889 Z M25.8502931,36.2590046 L27.2360868,36.2590046 L33.2370643,42.9108546 L33.2370643,36.2590046 L34.2143536,36.2590046 L34.2143536,44.346242 L33.2370643,44.346242 L26.7821242,37.1264482 L26.7821242,44.346242 L25.8502931,44.346242 L25.8502931,36.2590046 Z M51.0005671,27.7277971 C51.4671639,28.3512683 52.2439169,29.3743623 54.6612525,29.3743623 C55.9032398,29.3743623 57.6005523,29.0189626 57.6005523,27.7619582 C57.6005523,25.3034768 50.5680329,27.4609678 50.5680329,24.179266 C50.5680329,22.4555588 52.154363,21.7537034 54.3509724,21.7537034 C56.480819,21.7537034 57.7896931,22.6325754 58.3446051,23.4115728 L57.634615,23.9895787 C57.3016677,23.6114463 56.5249147,22.5769239 54.3283053,22.5769239 C52.709275,22.5769239 51.5667508,23.0006458 51.5667508,24.0237398 C51.5667508,26.4707927 58.5992701,24.1349186 58.5992701,27.7619582 C58.5992701,29.1188372 57.2903961,30.2418058 54.5502701,30.2418058 C51.9109696,30.2418058 50.9350428,29.1403277 50.2464812,28.3727587 L51.0005671,27.7277971 Z M41.6806457,21.9548192 L48.8682432,21.9548192 L48.8682432,22.8222627 L42.6566964,22.8222627 L42.6566964,25.4033514 L47.8480968,25.4033514 L47.8480968,26.2709192 L42.6566964,26.2709192 L42.6566964,29.1744888 L49.0018928,29.1744888 L49.0018928,30.0420566 L41.6806457,30.0420566 L41.6806457,21.9548192 Z M32.4704682,21.9548192 L39.6580656,21.9548192 L39.6580656,22.8222627 L33.446395,22.8222627 L33.446395,25.4033514 L38.6379193,25.4033514 L38.6379193,26.2709192 L33.446395,26.2709192 L33.446395,29.1744888 L39.7917152,29.1744888 L39.7917152,30.0420566 L32.4704682,30.0420566 L32.4704682,21.9548192 Z M25.7229606,22.8222627 L21.8302773,22.8222627 L21.8302773,21.9548192 L30.5928093,21.9548192 L30.5928093,22.8222627 L26.700126,22.8222627 L26.700126,30.0420566 L25.7229606,30.0420566 L25.7229606,22.8222627 Z" id="Fill-1"></path>
                <g id="Group-5" transform="translate(0.000000, 0.081490)">
                    <path d="M26.0553009,68.4732229 C26.0553009,68.4732229 25.1535688,70.3093511 22.1232287,72.2125593 C19.7421854,73.7072007 16.283151,74.2476915 14.9809656,72.1644853 C14.4659379,71.3390289 14.7080926,70.2802831 15.314656,69.8992936 C16.353382,69.245388 17.9506122,70.2098491 17.444131,71.7646141 C18.0738571,71.2704582 18.6445,69.4392989 17.7769544,68.0511159 C17.1036281,66.9733641 15.5979337,66.1462928 13.9167236,66.4139916 C14.1845182,64.7287933 13.3588388,63.2186241 12.2851831,62.5442218 C10.8991416,61.6741696 9.07424888,62.2457159 8.58151671,62.8771373 C10.1325454,62.3709319 11.0924937,63.9702926 10.44233,65.0136348 C10.0633053,65.6210813 9.00661897,65.8648053 8.18366458,65.3482894 C6.10633645,64.0423415 6.64539387,60.572443 8.1357291,58.1837744 C10.0341972,55.1464176 11.8659024,54.2403409 11.8659024,54.2403409 C5.83086225,53.5315291 -0.413013113,48.5155612 1.18347382,40.9426037 C-1.95301792,47.6866265 1.64722175,54.1287894 6.11835129,56.4934831 C3.54829098,59.8363023 1.79437253,66.8360986 6.27912715,69.6522157 C7.45038794,70.3883564 8.79704058,70.5667395 10.0333301,70.3093511 C9.77668331,71.5500824 9.95541949,72.900626 10.6886961,74.0744015 C13.4974429,78.5722387 20.4762052,76.8132524 23.8095173,74.2375053 C26.1682651,78.7198147 32.5908767,82.3303327 39.3164603,79.1847783 C31.763587,80.7858782 26.7628137,74.5257008 26.0553009,68.4732229 M68.2333237,54.2403409 C68.2333237,54.2403409 70.0641619,55.1464176 71.963497,58.1837744 C73.4539561,60.572443 73.9928896,64.0423415 71.9156854,65.3482894 C71.0926071,65.8648053 70.0367879,65.6210813 69.6568961,65.0136348 C69.0049983,63.9702926 69.9666807,62.3709319 71.5185764,62.8771373 C71.0241102,62.2457159 69.1983504,61.6741696 67.8124328,62.5442218 C66.7395203,63.2186241 65.9130977,64.7287933 66.1817593,66.4139916 C64.4996822,66.1462928 62.9938639,66.9733641 62.3231387,68.0511159 C61.4538591,69.4392989 62.025369,71.2704582 62.653361,71.7646141 C62.1486139,70.2098491 63.7451009,69.245388 64.783703,69.8992936 C65.3911335,70.2802831 65.6324212,71.3390289 65.1191275,72.1644853 C63.8169422,74.2476915 60.3570407,73.7072007 57.9752542,72.2125593 C54.9447903,70.3093511 54.0430582,68.4732229 54.0430582,68.4732229 C53.3364124,74.5257008 48.3348959,80.7858782 40.7827658,79.1847783 C47.5066153,82.3303327 53.9300939,78.7198147 56.2897088,74.2375053 C59.6230209,76.8132524 66.6026502,78.5722387 69.41053,74.0744015 C70.1429396,72.900626 70.3209326,71.5500824 70.065896,70.3093511 C71.3030526,70.5667395 72.6479711,70.3883564 73.820099,69.6522157 C78.3032433,66.8360986 76.5493249,59.8363023 73.9808748,56.4934831 C78.4521282,54.1287894 82.052244,47.6866265 78.9157523,40.9426037 C80.5122392,48.5155612 74.2667536,53.5315291 68.2333237,54.2403409 M23.8095173,6.17703548 C20.4762052,3.6011641 13.4974429,1.84230207 10.6886961,6.340015 C9.95541949,7.5137905 9.77668331,8.86433418 10.0333301,10.1033263 C8.79704058,9.84767706 7.45038794,10.0261843 6.27912715,10.7623251 C1.79437253,13.5784422 3.54829098,20.5764994 6.11835129,23.9193186 C1.64722175,26.2857514 -1.95301792,32.7277901 1.18347382,39.4719371 C-0.413013113,31.8989796 5.83086225,26.8828874 11.8659024,26.1724607 C11.8659024,26.1724607 10.0341972,25.2681232 8.1357291,22.2307663 C6.64539387,19.8419736 6.10633645,16.3720751 8.18366458,15.0662514 C9.00661897,14.5496113 10.0633053,14.7933352 10.44233,15.4007817 C11.0924937,16.4441239 10.1325454,18.0434847 8.58151671,17.5356643 C9.07424888,18.1670857 10.8991416,18.7402469 12.2851831,17.8701947 C13.3588388,17.1957924 14.1845182,15.6856232 13.9167236,14.0005492 C15.5979337,14.268248 17.1036281,13.4410524 17.7769544,12.3634249 C18.6445,10.9733786 18.0738571,9.14408256 17.444131,8.64980245 C17.9506122,10.2045674 16.353382,11.1672894 15.314656,10.5152471 C14.7080926,10.1325185 14.4659379,9.0737728 14.9809656,8.25005544 C16.283151,6.16498593 19.7421854,6.70560091 22.1232287,8.20198145 C25.1535688,10.1050654 26.0553009,11.9413179 26.0553009,11.9413179 C26.7628137,5.88871578 31.763587,-0.371461623 39.3164603,1.22963822 C32.5908767,-1.91591614 26.1682651,1.69472611 23.8095173,6.17703548 M40.7827658,1.22963822 C47.5066153,-1.91591614 53.9300939,1.69472611 56.2897088,6.17703548 C59.6230209,3.6011641 66.6026502,1.84230207 69.41053,6.340015 C70.1429396,7.5137905 70.3209326,8.86433418 70.065896,10.1033263 C71.3030526,9.84767706 72.6479711,10.0261843 73.820099,10.7623251 C78.3032433,13.5784422 76.5493249,20.5764994 73.9808748,23.9193186 C78.4521282,26.2857514 82.052244,32.7277901 78.9157523,39.4719371 C80.5122392,31.8989796 74.2667536,26.8828874 68.2333237,26.1724607 C68.2333237,26.1724607 70.0641619,25.2681232 71.963497,22.2307663 C73.4539561,19.8419736 73.9928896,16.3720751 71.9156854,15.0662514 C71.0926071,14.5496113 70.0367879,14.7933352 69.6568961,15.4007817 C69.0049983,16.4441239 69.9666807,18.0434847 71.5185764,17.5356643 C71.0241102,18.1670857 69.1983504,18.7402469 67.8124328,17.8701947 C66.7395203,17.1957924 65.9130977,15.6856232 66.1817593,14.0005492 C64.4996822,14.268248 62.9938639,13.4410524 62.3231387,12.3634249 C61.4538591,10.9733786 62.025369,9.14408256 62.653361,8.64980245 C62.1486139,10.2045674 63.7451009,11.1672894 64.783703,10.5152471 C65.3911335,10.1325185 65.6324212,9.0737728 65.1191275,8.25005544 C63.8169422,6.16498593 60.3570407,6.70560091 57.9752542,8.20198145 C54.9447903,10.1050654 54.0430582,11.9413179 54.0430582,11.9413179 C53.3364124,5.88871578 48.3348959,-0.371461623 40.7827658,1.22963822" id="Fill-3"></path>
                </g>
            </g>
        </g>
    </g>
</svg>