<?xml version="1.0" encoding="UTF-8"?>
<svg width="96px" height="64px" viewBox="0 0 96 64" version="1.1" xmlns="http://www.w3.org/2000/svg" xmlns:xlink="http://www.w3.org/1999/xlink">
    <!-- Generator: Sketch 48.1 (47250) - http://www.bohemiancoding.com/sketch -->
    <title>Artboard 5</title>
    <desc>Created with Sketch.</desc>
    <defs></defs>
    <g id="Desktop" stroke="none" stroke-width="1" fill="none" fill-rule="evenodd">
        <g id="Artboard-5" fill="#7A6D75">
            <g id="Page-1" transform="translate(1.000000, 0.000000)">
                <path d="M62.1428424,4.52361664 C62.1428424,4.19176601 62.3874712,3.92267431 62.6890345,3.92267431 C62.9907434,3.92267431 63.2353722,4.19176601 63.2353722,4.52361664 C63.2353722,4.85546727 62.9907434,5.12455896 62.6890345,5.12455896 C62.3874712,5.12455896 62.1428424,4.85546727 62.1428424,4.52361664 Z M57.5856115,4.57822128 C57.5856115,4.24637065 57.8300947,3.97742457 58.1318036,3.97742457 C58.4335125,3.97742457 58.6779957,4.24637065 58.6779957,4.57822128 C58.6779957,4.91007191 58.4335125,5.17916361 58.1318036,5.17916361 C57.8300947,5.17916361 57.5856115,4.91007191 57.5856115,4.57822128 Z M53.028235,4.52361664 C53.028235,4.19176601 53.2728639,3.92267431 53.5744271,3.92267431 C53.8762816,3.92267431 54.1207648,4.19176601 54.1207648,4.52361664 C54.1207648,4.85546727 53.8762816,5.12455896 53.5744271,5.12455896 C53.2728639,5.12455896 53.028235,4.85546727 53.028235,4.52361664 Z M48.4710042,4.57822128 C48.4710042,4.24637065 48.7154874,3.97742457 49.0171962,3.97742457 C49.3189051,3.97742457 49.5633883,4.24637065 49.5633883,4.57822128 C49.5633883,4.91007191 49.3189051,5.17916361 49.0171962,5.17916361 C48.7154874,5.17916361 48.4710042,4.91007191 48.4710042,4.57822128 Z M43.9136277,4.52361664 C43.9136277,4.19176601 44.1582565,3.92267431 44.4599653,3.92267431 C44.7616742,3.92267431 45.0061574,4.19176601 45.0061574,4.52361664 C45.0061574,4.85546727 44.7616742,5.12455896 44.4599653,5.12455896 C44.1582565,5.12455896 43.9136277,4.85546727 43.9136277,4.52361664 Z M39.3563968,4.57822128 C39.3563968,4.24637065 39.60088,3.97742457 39.9025888,3.97742457 C40.2042977,3.97742457 40.4489265,4.24637065 40.4489265,4.57822128 C40.4489265,4.91007191 40.2042977,5.17916361 39.9025888,5.17916361 C39.60088,5.17916361 39.3563968,4.91007191 39.3563968,4.57822128 Z M34.7991659,4.52361664 C34.7991659,4.19176601 35.0436491,3.92267431 35.345358,3.92267431 C35.6470668,3.92267431 35.89155,4.19176601 35.89155,4.52361664 C35.89155,4.85546727 35.6470668,5.12455896 35.345358,5.12455896 C35.0436491,5.12455896 34.7991659,4.85546727 34.7991659,4.52361664 Z M30.2417894,4.57822128 C30.2417894,4.24637065 30.4864182,3.97742457 30.7879815,3.97742457 C31.0896903,3.97742457 31.3343191,4.24637065 31.3343191,4.57822128 C31.3343191,4.91007191 31.0896903,5.17916361 30.7879815,5.17916361 C30.4864182,5.17916361 30.2417894,4.91007191 30.2417894,4.57822128 Z M57.0081128,35.0043664 C57.0081128,35.3362171 56.763484,35.6053088 56.4617751,35.6053088 C56.1602119,35.6053088 55.9155831,35.3362171 55.9155831,35.0043664 C55.9155831,34.6725158 56.1602119,34.4035697 56.4617751,34.4035697 C56.763484,34.4035697 57.0081128,34.6725158 57.0081128,35.0043664 Z M57.0081128,30.62653 C57.0081128,30.9583807 56.763484,31.2273267 56.4617751,31.2273267 C56.1602119,31.2273267 55.9155831,30.9583807 55.9155831,30.62653 C55.9155831,30.2946794 56.1602119,30.0255877 56.4617751,30.0255877 C56.763484,30.0255877 57.0081128,30.2946794 57.0081128,30.62653 Z M57.0081128,26.373629 C57.0081128,26.7054797 56.763484,26.9745714 56.4617751,26.9745714 C56.1602119,26.9745714 55.9155831,26.7054797 55.9155831,26.373629 C55.9155831,26.0417784 56.1602119,25.7728323 56.4617751,25.7728323 C56.763484,25.7728323 57.0081128,26.0417784 57.0081128,26.373629 Z M57.0081128,22.120728 C57.0081128,22.4525787 56.763484,22.7216704 56.4617751,22.7216704 C56.1602119,22.7216704 55.9155831,22.4525787 55.9155831,22.120728 C55.9155831,21.7888774 56.1602119,21.5199313 56.4617751,21.5199313 C56.763484,21.5199313 57.0081128,21.7888774 57.0081128,22.120728 Z M57.0081128,17.8679726 C57.0081128,18.1998233 56.763484,18.4687694 56.4617751,18.4687694 C56.1602119,18.4687694 55.9155831,18.1998233 55.9155831,17.8679726 C55.9155831,17.536122 56.1602119,17.2670303 56.4617751,17.2670303 C56.763484,17.2670303 57.0081128,17.536122 57.0081128,17.8679726 Z M57.0081128,13.6150717 C57.0081128,13.9469223 56.763484,14.216014 56.4617751,14.216014 C56.1602119,14.216014 55.9155831,13.9469223 55.9155831,13.6150717 C55.9155831,13.283221 56.1602119,13.0141293 56.4617751,13.0141293 C56.763484,13.0141293 57.0081128,13.283221 57.0081128,13.6150717 Z M60.6133299,36.783313 C60.6133299,36.4514624 60.8579587,36.1825163 61.159522,36.1825163 C61.4612308,36.1825163 61.7058597,36.4514624 61.7058597,36.783313 C61.7058597,37.1151636 61.4612308,37.3842553 61.159522,37.3842553 C60.8579587,37.3842553 60.6133299,37.1151636 60.6133299,36.783313 Z M60.6133299,32.5305576 C60.6133299,32.1985614 60.8579587,31.9296153 61.159522,31.9296153 C61.4612308,31.9296153 61.7058597,32.1985614 61.7058597,32.5305576 C61.7058597,32.8624082 61.4612308,33.1313543 61.159522,33.1313543 C60.8579587,33.1313543 60.6133299,32.8624082 60.6133299,32.5305576 Z M60.6133299,27.9261483 C60.6133299,27.5942977 60.8579587,27.3253516 61.159522,27.3253516 C61.4612308,27.3253516 61.7058597,27.5942977 61.7058597,27.9261483 C61.7058597,28.2579989 61.4612308,28.5270906 61.159522,28.5270906 C60.8579587,28.5270906 60.6133299,28.2579989 60.6133299,27.9261483 Z M60.6133299,23.6733929 C60.6133299,23.3415423 60.8579587,23.0724506 61.159522,23.0724506 C61.4612308,23.0724506 61.7058597,23.3415423 61.7058597,23.6733929 C61.7058597,24.0052435 61.4612308,24.2741896 61.159522,24.2741896 C60.8579587,24.2741896 60.6133299,24.0052435 60.6133299,23.6733929 Z M60.6133299,19.4204919 C60.6133299,19.0886413 60.8579587,18.8195496 61.159522,18.8195496 C61.4612308,18.8195496 61.7058597,19.0886413 61.7058597,19.4204919 C61.7058597,19.7523426 61.4612308,20.0212886 61.159522,20.0212886 C60.8579587,20.0212886 60.6133299,19.7523426 60.6133299,19.4204919 Z M60.6133299,15.1675909 C60.6133299,14.8357403 60.8579587,14.5667942 61.159522,14.5667942 C61.4612308,14.5667942 61.7058597,14.8357403 61.7058597,15.1675909 C61.7058597,15.4994416 61.4612308,15.7685332 61.159522,15.7685332 C60.8579587,15.7685332 60.6133299,15.4994416 60.6133299,15.1675909 Z M60.6133299,10.9146899 C60.6133299,10.5828393 60.8579587,10.3138932 61.159522,10.3138932 C61.4612308,10.3138932 61.7058597,10.5828393 61.7058597,10.9146899 C61.7058597,11.2465406 61.4612308,11.5156323 61.159522,11.5156323 C60.8579587,11.5156323 60.6133299,11.2465406 60.6133299,10.9146899 Z M52.4195753,32.5225489 C52.4195753,32.8543996 52.1749465,33.1234912 51.8733832,33.1234912 C51.5716743,33.1234912 51.3270455,32.8543996 51.3270455,32.5225489 C51.3270455,32.1906983 51.5716743,31.9217522 51.8733832,31.9217522 C52.1749465,31.9217522 52.4195753,32.1906983 52.4195753,32.5225489 Z M52.4195753,27.9261483 C52.4195753,28.2579989 52.1749465,28.5270906 51.8733832,28.5270906 C51.5716743,28.5270906 51.3270455,28.2579989 51.3270455,27.9261483 C51.3270455,27.5942977 51.5716743,27.3253516 51.8733832,27.3253516 C52.1749465,27.3253516 52.4195753,27.5942977 52.4195753,27.9261483 Z M52.4195753,23.6733929 C52.4195753,24.0052435 52.1749465,24.2741896 51.8733832,24.2741896 C51.5716743,24.2741896 51.3270455,24.0052435 51.3270455,23.6733929 C51.3270455,23.3415423 51.5716743,23.0724506 51.8733832,23.0724506 C52.1749465,23.0724506 52.4195753,23.3415423 52.4195753,23.6733929 Z M52.4195753,19.4204919 C52.4195753,19.7523426 52.1749465,20.0212886 51.8733832,20.0212886 C51.5716743,20.0212886 51.3270455,19.7523426 51.3270455,19.4204919 C51.3270455,19.0886413 51.5716743,18.8195496 51.8733832,18.8195496 C52.1749465,18.8195496 52.4195753,19.0886413 52.4195753,19.4204919 Z M52.4195753,15.1675909 C52.4195753,15.4994416 52.1749465,15.7685332 51.8733832,15.7685332 C51.5716743,15.7685332 51.3270455,15.4994416 51.3270455,15.1675909 C51.3270455,14.8357403 51.5716743,14.5667942 51.8733832,14.5667942 C52.1749465,14.5667942 52.4195753,14.8357403 52.4195753,15.1675909 Z M52.4195753,10.9146899 C52.4195753,11.2465406 52.1749465,11.5156323 51.8733832,11.5156323 C51.5716743,11.5156323 51.3270455,11.2465406 51.3270455,10.9146899 C51.3270455,10.5828393 51.5716743,10.3138932 51.8733832,10.3138932 C52.1749465,10.3138932 52.4195753,10.5828393 52.4195753,10.9146899 Z M47.3940549,30.5173207 C47.3940549,30.8491714 47.1494261,31.1181174 46.8478629,31.1181174 C46.546154,31.1181174 46.3015252,30.8491714 46.3015252,30.5173207 C46.3015252,30.1854701 46.546154,29.9163784 46.8478629,29.9163784 C47.1494261,29.9163784 47.3940549,30.1854701 47.3940549,30.5173207 Z M47.3940549,26.2644197 C47.3940549,26.5962704 47.1494261,26.8652164 46.8478629,26.8652164 C46.546154,26.8652164 46.3015252,26.5962704 46.3015252,26.2644197 C46.3015252,25.9325691 46.546154,25.6634774 46.8478629,25.6634774 C47.1494261,25.6634774 47.3940549,25.9325691 47.3940549,26.2644197 Z M47.3940549,22.0115187 C47.3940549,22.3433694 47.1494261,22.6124611 46.8478629,22.6124611 C46.546154,22.6124611 46.3015252,22.3433694 46.3015252,22.0115187 C46.3015252,21.6796681 46.546154,21.410722 46.8478629,21.410722 C47.1494261,21.410722 47.3940549,21.6796681 47.3940549,22.0115187 Z M47.3940549,17.7586177 C47.3940549,18.0904684 47.1494261,18.3595601 46.8478629,18.3595601 C46.546154,18.3595601 46.3015252,18.0904684 46.3015252,17.7586177 C46.3015252,17.4267671 46.546154,17.157821 46.8478629,17.157821 C47.1494261,17.157821 47.3940549,17.4267671 47.3940549,17.7586177 Z M47.3940549,13.5058624 C47.3940549,13.837713 47.1494261,14.1066591 46.8478629,14.1066591 C46.546154,14.1066591 46.3015252,13.837713 46.3015252,13.5058624 C46.3015252,13.1740117 46.546154,12.90492 46.8478629,12.90492 C47.1494261,12.90492 47.3940549,13.1740117 47.3940549,13.5058624 Z M42.5870988,27.9261483 C42.5870988,28.2579989 42.34247,28.5270906 42.0407611,28.5270906 C41.7391979,28.5270906 41.4945691,28.2579989 41.4945691,27.9261483 C41.4945691,27.5942977 41.7391979,27.3253516 42.0407611,27.3253516 C42.34247,27.3253516 42.5870988,27.5942977 42.5870988,27.9261483 Z M42.5870988,23.6733929 C42.5870988,24.0052435 42.34247,24.2741896 42.0407611,24.2741896 C41.7391979,24.2741896 41.4945691,24.0052435 41.4945691,23.6733929 C41.4945691,23.3415423 41.7391979,23.0724506 42.0407611,23.0724506 C42.34247,23.0724506 42.5870988,23.3415423 42.5870988,23.6733929 Z M42.5870988,19.4204919 C42.5870988,19.7523426 42.34247,20.0212886 42.0407611,20.0212886 C41.7391979,20.0212886 41.4945691,19.7523426 41.4945691,19.4204919 C41.4945691,19.0886413 41.7391979,18.8195496 42.0407611,18.8195496 C42.34247,18.8195496 42.5870988,19.0886413 42.5870988,19.4204919 Z M42.5870988,15.1675909 C42.5870988,15.4994416 42.34247,15.7685332 42.0407611,15.7685332 C41.7391979,15.7685332 41.4945691,15.4994416 41.4945691,15.1675909 C41.4945691,14.8357403 41.7391979,14.5667942 42.0407611,14.5667942 C42.34247,14.5667942 42.5870988,14.8357403 42.5870988,15.1675909 Z M42.5870988,10.9146899 C42.5870988,11.2465406 42.34247,11.5156323 42.0407611,11.5156323 C41.7391979,11.5156323 41.4945691,11.2465406 41.4945691,10.9146899 C41.4945691,10.5828393 41.7391979,10.3138932 42.0407611,10.3138932 C42.34247,10.3138932 42.5870988,10.5828393 42.5870988,10.9146899 Z M37.7799971,25.9366463 C37.7799971,26.2684969 37.5355139,26.5375886 37.233805,26.5375886 C36.9320961,26.5375886 36.6876129,26.2684969 36.6876129,25.9366463 C36.6876129,25.6047956 36.9320961,25.3357039 37.233805,25.3357039 C37.5355139,25.3357039 37.7799971,25.6047956 37.7799971,25.9366463 Z M37.7799971,21.6837453 C37.7799971,22.0155959 37.5355139,22.2846876 37.233805,22.2846876 C36.9320961,22.2846876 36.6876129,22.0155959 36.6876129,21.6837453 C36.6876129,21.3518946 36.9320961,21.0829485 37.233805,21.0829485 C37.5355139,21.0829485 37.7799971,21.3518946 37.7799971,21.6837453 Z M37.7799971,17.4309899 C37.7799971,17.7628405 37.5355139,18.0317866 37.233805,18.0317866 C36.9320961,18.0317866 36.6876129,17.7628405 36.6876129,17.4309899 C36.6876129,17.0991392 36.9320961,16.8300476 37.233805,16.8300476 C37.5355139,16.8300476 37.7799971,17.0991392 37.7799971,17.4309899 Z M37.7799971,13.1780889 C37.7799971,13.5099395 37.5355139,13.7788856 37.233805,13.7788856 C36.9320961,13.7788856 36.6876129,13.5099395 36.6876129,13.1780889 C36.6876129,12.8462382 36.9320961,12.5771466 37.233805,12.5771466 C37.5355139,12.5771466 37.7799971,12.8462382 37.7799971,13.1780889 Z M33.1916051,27.9261483 C33.1916051,28.2579989 32.9469763,28.5270906 32.6452675,28.5270906 C32.3437042,28.5270906 32.0990754,28.2579989 32.0990754,27.9261483 C32.0990754,27.5942977 32.3437042,27.3253516 32.6452675,27.3253516 C32.9469763,27.3253516 33.1916051,27.5942977 33.1916051,27.9261483 Z M33.1916051,23.6733929 C33.1916051,24.0052435 32.9469763,24.2741896 32.6452675,24.2741896 C32.3437042,24.2741896 32.0990754,24.0052435 32.0990754,23.6733929 C32.0990754,23.3415423 32.3437042,23.0724506 32.6452675,23.0724506 C32.9469763,23.0724506 33.1916051,23.3415423 33.1916051,23.6733929 Z M33.1916051,19.4204919 C33.1916051,19.7523426 32.9469763,20.0212886 32.6452675,20.0212886 C32.3437042,20.0212886 32.0990754,19.7523426 32.0990754,19.4204919 C32.0990754,19.0886413 32.3437042,18.8195496 32.6452675,18.8195496 C32.9469763,18.8195496 33.1916051,19.0886413 33.1916051,19.4204919 Z M33.1916051,15.1675909 C33.1916051,15.4994416 32.9469763,15.7685332 32.6452675,15.7685332 C32.3437042,15.7685332 32.0990754,15.4994416 32.0990754,15.1675909 C32.0990754,14.8357403 32.3437042,14.5667942 32.6452675,14.5667942 C32.9469763,14.5667942 33.1916051,14.8357403 33.1916051,15.1675909 Z M33.1916051,10.9146899 C33.1916051,11.2465406 32.9469763,11.5156323 32.6452675,11.5156323 C32.3437042,11.5156323 32.0990754,11.2465406 32.0990754,10.9146899 C32.0990754,10.5828393 32.3437042,10.3138932 32.6452675,10.3138932 C32.9469763,10.3138932 33.1916051,10.5828393 33.1916051,10.9146899 Z M80.6583311,43.4267325 C80.0852008,42.5326725 79.1861899,41.8676607 78.2082571,41.3751996 C79.7451959,39.9358212 82.5593009,37.3279033 83.6339203,36.5117459 C84.601369,35.7771314 88.041316,33.4865029 89.6193175,32.4407148 C90.1774497,32.6297196 91.1248039,33.0153012 91.8496624,33.6421626 L80.6583311,43.4267325 Z M78.8294396,46.3915464 C77.9615897,47.3170587 75.7197414,47.908973 72.5609719,48.0698747 C72.5296652,48.065652 72.4980674,48.0627397 72.4660326,48.061138 C70.871577,47.9826529 69.3751185,47.8556789 68.1196485,47.7263751 C67.1098266,47.5897907 65.8865369,47.4332574 64.5527274,47.28051 C64.5234593,47.275996 64.507442,47.2735206 64.505549,47.2732294 C60.8767427,46.6746168 57.7963127,46.4984259 55.1994614,46.5887055 C55.007253,46.5862301 54.8173744,46.5849196 54.6302625,46.5849196 C54.3153029,46.5879775 47.0180838,46.7011183 43.1782851,50.2480904 C43.0170922,50.3925379 42.9285599,50.4880597 42.904097,50.5152892 C42.5077401,50.9554754 42.5343871,51.6311169 42.9639437,52.0388316 C43.3935002,52.4464007 44.0695785,52.4373727 44.4885054,52.0188827 C44.5553415,51.951901 44.6240705,51.8863754 44.6944013,51.8221603 C45.0971651,51.4723994 46.2584239,50.5966865 48.4832356,49.8671684 C50.6187869,49.1670641 52.9632919,48.8518133 55.2878481,48.7750755 C58.0935075,48.8186136 61.4817622,49.1310978 64.3536753,49.4606186 C64.82677,49.5321143 66.094617,49.7147123 67.8255115,49.8939611 C68.4801847,49.9822022 69.0438503,50.061561 69.4870944,50.1254848 C67.2167061,52.0100003 63.7808362,54.9665142 61.837202,57.1472054 C59.2469033,60.0533374 59.0613931,60.1308032 57.2868149,60.8728439 C57.1247483,60.9405537 56.9511784,61.0130686 56.763484,61.0927186 C56.6730587,61.1311603 56.6631571,61.1248989 56.6009806,61.1746984 C56.4499805,61.2410976 55.6741577,61.5349434 53.7781388,61.5435345 C53.7506181,61.5436802 53.7229517,61.5438258 53.6949942,61.5438258 C51.7484478,61.5438258 48.240791,61.2373117 42.4780351,59.8071068 C41.5293704,59.5173382 27.0094856,55.1130003 21.0781106,55.1064477 C20.7003921,55.0997496 16.2274708,55.0700446 12.0628109,58.0465075 L2.58664795,44.1480963 C3.39523354,43.2352523 5.15539608,41.408108 7.72516349,39.6016407 C11.0237209,37.2830547 16.3816743,34.519186 23.1782781,34.519186 C23.5091094,34.5181667 31.2792776,34.4720076 35.8864536,32.5557485 C35.9334864,32.5436627 35.9824121,32.5298295 36.0358519,32.5145402 C39.4409976,31.5449074 42.2355905,33.0051084 43.9774059,34.3984733 C44.0567646,34.4623971 45.9536572,35.9834641 48.765578,37.5835987 C51.4132481,39.0903956 53.9173443,40.1341452 56.24656,40.707858 C56.2633055,40.7125176 56.2810702,40.7176141 56.2973788,40.7219824 C56.3251907,40.7295543 56.3532939,40.7361069 56.3818339,40.7414945 L56.4127038,40.747319 C57.2102228,40.9367607 57.9869193,41.0705785 58.7414827,41.1478987 C59.4261521,41.2370135 59.8925486,41.2888515 60.6110001,41.3383597 C61.1411748,41.3802961 61.7799764,41.4260183 62.462316,41.4707213 C64.6891662,41.616625 66.9773193,41.7284553 68.7402485,41.7775266 C70.6613127,41.831112 73.4237253,42.0378816 75.6740191,42.7196388 C75.8614223,42.7764276 76.0405255,42.8354006 76.212785,42.896121 C78.1664664,43.6471897 78.8113836,44.5802739 79.0193181,45.0476896 C79.081349,45.2374226 79.1129469,45.4341449 79.1129469,45.6380023 C79.1129469,45.6978489 79.1178977,45.7574044 79.1276537,45.8163774 C79.1276537,45.8615173 79.1126557,46.0894007 78.8294396,46.3915464 Z M56.8713828,38.6103116 C56.8325043,38.6008468 56.7936258,38.5909452 56.7547473,38.5811891 C55.0959309,38.1150839 52.0366147,36.9810546 50.9751004,36.2448384 L44.1506846,31.5117077 C43.1035859,30.7856844 41.881898,30.3205984 40.6171088,30.1668317 L39.7852253,30.0657767 C38.3349259,29.8892945 36.8779283,29.963848 35.4538392,30.2866707 L30.0233708,31.5178234 L30.0233708,8.56581651 L36.6969321,8.56581651 C36.6911076,8.60134593 36.6876129,8.63774903 36.6876129,8.67517141 C36.6876129,9.00702204 36.9320961,9.27596812 37.233805,9.27596812 C37.5355139,9.27596812 37.7799971,9.00702204 37.7799971,8.67517141 C37.7799971,8.63774903 37.7765024,8.60134593 37.7706779,8.56581651 L46.473639,8.56581651 C46.3679244,8.67546264 46.3015252,8.83039422 46.3015252,9.0029449 C46.3015252,9.33479553 46.546154,9.60374161 46.8478629,9.60374161 C47.1494261,9.60374161 47.3940549,9.33479553 47.3940549,9.0029449 C47.3940549,8.83039422 47.3276557,8.67546264 47.2219411,8.56581651 L56.2352023,8.56581651 C56.0467798,8.66061017 55.9155831,8.86927272 55.9155831,9.11215419 C55.9155831,9.44400482 56.1602119,9.7129509 56.4617751,9.7129509 C56.763484,9.7129509 57.0081128,9.44400482 57.0081128,9.11215419 C57.0081128,8.86927272 56.8769161,8.66061017 56.6884936,8.56581651 L63.8716983,8.56581651 L63.9603762,39.318279 L60.7547195,39.1579598 C60.1789682,39.1123831 59.7697974,39.0746695 59.6001589,39.0515171 C59.5295369,39.0315682 59.4560027,39.0184631 59.3802842,39.0130755 C59.2760257,39.0056492 59.1717673,38.9969125 59.0673632,38.9868652 C58.8661269,38.9608006 58.6433399,38.9310957 58.3838586,38.8962943 L56.8713828,38.6103116 Z M27.0189504,6.38090264 L27.0189504,2.77568554 L66.4582111,2.77568554 L66.4582111,6.38090264 L64.960879,6.38090264 L28.9308411,6.38090264 L27.0189504,6.38090264 Z M71.6845309,36.1838268 C74.4360226,33.2905087 79.7476713,28.798949 82.3164194,29.0432865 C82.3659276,29.0479461 82.4129604,29.0549355 82.4589739,29.063381 C81.0645897,30.1604248 78.8670076,31.8852035 78.0153207,32.5320137 C76.5926877,33.6121664 71.2210467,38.4479538 69.9178158,39.6242107 C69.5600462,39.6095038 69.1952872,39.5987285 68.8217914,39.5931952 L67.6533976,39.5400467 C69.2366411,38.3132623 71.1061585,36.821609 71.6845309,36.1838268 Z M85.0336922,29.8170708 C85.1054791,29.7602819 85.1672187,29.69563 85.2208041,29.6263185 C85.4782468,29.4259559 85.9163945,29.1227909 86.4579269,28.8994215 C87.546962,28.4502073 88.4950442,28.5380116 89.3502258,29.1625431 C89.4137128,29.2097215 89.6108719,29.430033 89.6053387,29.5538036 C89.6006791,29.65282 89.4333704,29.9364729 88.8327193,30.3021056 C88.7430221,30.3567103 88.6635178,30.4232551 88.5949343,30.4982455 C87.0992039,31.4884097 83.3814284,33.9600344 82.3124879,34.7716779 C80.9128616,35.8343571 77.0250109,39.4844228 75.9428196,40.5054568 C75.0349264,40.23753 74.0214641,40.0279938 72.9043259,39.877285 C75.0052214,37.9934975 78.3227085,35.0420801 79.3367531,34.2720818 C80.6356156,33.2858491 84.8545889,29.9581692 85.0336922,29.8170708 Z M94.3055609,33.1545067 C93.5764797,32.027758 92.4083771,31.2809121 91.4243286,30.8164086 C91.6474068,30.4510671 91.7689931,30.0630101 91.7879227,29.6544217 C91.8486431,28.3360472 90.7756254,27.499504 90.6463216,27.4033998 C89.1610753,26.3181507 87.4249388,26.1371545 85.6247328,26.8796321 C85.1185842,27.0882946 84.6808733,27.3409321 84.333151,27.5733295 C83.8240901,27.1728954 83.2120812,26.9329262 82.5211504,26.8678375 C80.5151942,26.6810168 77.8726206,27.9343026 74.4417015,30.7053063 C72.0369129,32.6474843 70.1691428,34.6064078 70.0908034,34.68897 C70.0833771,34.6968331 70.0759509,34.7048418 70.0686703,34.7129961 C69.6396962,35.1924977 67.8683215,36.6106167 66.1415042,37.9463191 L66.0566122,8.56581651 L67.5507409,8.56581651 C68.154013,8.56581651 68.6432706,8.0767045 68.6432706,7.47343238 L68.6432706,1.6831558 C68.6432706,1.07973806 68.154013,0.590626056 67.5507409,0.590626056 L25.9264207,0.590626056 C25.3231486,0.590626056 24.8338909,1.07973806 24.8338909,1.6831558 L24.8338909,7.47343238 C24.8338909,8.0767045 25.3231486,8.56581651 25.9264207,8.56581651 L27.8383113,8.56581651 L27.8383113,32.065326 C25.2752421,32.3216038 23.2127882,32.3341265 23.1747834,32.3341265 C15.7775285,32.3341265 9.97152579,35.3391293 6.40343985,37.8601166 C2.54398352,40.5868542 0.438428404,43.2978656 0.350624134,43.4120257 C0.0627484448,43.7862495 0.0478959812,44.3033191 0.313929813,44.6935603 L10.9121818,60.237537 C11.0864798,60.4930868 11.3609592,60.6628708 11.6673277,60.704516 C11.974133,60.7463067 12.2837049,60.6563183 12.5198882,60.4565381 C16.3538623,57.2175361 20.9929274,57.2901967 21.0331164,57.2910704 C21.0436005,57.2913616 21.0542302,57.2915072 21.0648599,57.2915072 C26.7334045,57.2915072 41.7158999,61.8587854 41.8666087,61.9049445 C41.8852471,61.9106234 41.9040311,61.9158654 41.9229607,61.920525 C47.5747599,63.3251021 51.2902056,63.7338361 53.7009643,63.7338361 C56.1775398,63.7336905 57.2772045,63.3023866 57.6831718,63.0761049 C57.8417437,63.0089776 57.9901228,62.9470923 58.1294738,62.8887018 C60.2737618,61.9923119 60.6558487,61.7564199 63.4682064,58.6009994 C66.0055022,55.7544229 71.4579581,51.3200888 72.7924956,50.2473624 C76.7851873,50.0341858 79.4139277,49.166336 80.6197439,47.6596846 C81.2276756,46.9001704 81.3227605,46.1820101 81.3115483,45.7579869 L94.1075281,34.5704415 C94.5161164,34.2132543 94.600426,33.6101278 94.3055609,33.1545067 Z" id="Fill-1"></path>
            </g>
        </g>
    </g>
</svg>