<?xml version="1.0" encoding="UTF-8"?>
<svg width="80px" height="80px" viewBox="0 0 80 80" version="1.1" xmlns="http://www.w3.org/2000/svg" xmlns:xlink="http://www.w3.org/1999/xlink">
    <!-- Generator: Sketch 48.1 (47250) - http://www.bohemiancoding.com/sketch -->
    <title>Artboard 4 Copy 3</title>
    <desc>Created with Sketch.</desc>
    <defs></defs>
    <g id="Desktop" stroke="none" stroke-width="1" fill="none" fill-rule="evenodd">
        <g id="Artboard-4-Copy-3" fill="#7A6D75">
            <g id="Page-1">
                <path d="M37.1627323,74.875968 C37.2557328,73.9399621 36.6002288,73.0894568 35.6597229,72.966456 C34.719217,72.8419553 33.8627116,73.4944593 33.7127107,74.4259652 C31.8286989,74.083963 29.9956875,73.59646 28.2301764,72.966456 C28.5721786,72.0829505 28.155176,71.0839443 27.2761705,70.719442 C26.395665,70.3549397 25.3951587,70.7659423 25.0111563,71.6329477 C24.154651,71.2264452 23.3191457,70.7809424 22.5031406,70.3069394 L34.0397127,52.7253295 L36.8267302,46.2062888 C37.1567322,46.3757898 37.4987344,46.5152907 37.8557366,46.6307914 L35.2172201,53.2128326 L30.9406934,73.8079613 L37.5362346,53.8338365 L38.5382409,46.8422928 C38.8952431,46.9187932 39.2687454,46.9442934 39.6437478,46.9637935 L38.7992425,54.0003375 L40.00075,75.0004688 L41.1992575,54.0003375 L40.3562522,46.9637935 C40.7312546,46.9442934 41.1047569,46.9187932 41.4617591,46.8422928 L42.4637654,53.8338365 L49.0593066,73.8079613 L44.7827799,53.2128326 L42.1442634,46.6307914 C42.5012656,46.5152907 42.8432678,46.3757898 43.1732698,46.2062888 L45.9602873,52.7253295 L57.4983594,70.3069394 C56.6808543,70.7809424 55.845349,71.2264452 54.9873437,71.6329477 C54.6048413,70.7659423 53.604335,70.3549397 52.7238295,70.719442 C51.844824,71.0839443 51.4278214,72.0829505 51.7698236,72.966456 C50.0043125,73.59646 48.1713011,74.083963 46.2872893,74.4259652 C46.1372884,73.4944593 45.280783,72.8419553 44.3402771,72.966456 C43.3997712,73.0894568 42.7427671,73.9399621 42.8372677,74.875968 C41.8997619,74.9509684 40.956256,75.0004688 40.00075,75.0004688 C39.043744,75.0004688 38.1002381,74.9509684 37.1627323,74.875968 M17.3446084,13.3320833 C17.9401121,14.0610879 19.0066188,14.1975887 19.7581235,13.6215851 C20.5126282,13.0425815 20.6551291,11.9760749 20.1031256,11.2110701 C20.8801305,10.6725667 21.6811355,10.1685636 22.5016406,9.69306058 L31.9606998,28.476178 L36.1997262,34.1342133 C35.8877243,34.3367146 35.6012225,34.5737161 35.3252208,34.8227176 L30.9481934,29.2516828 L15.2505953,15.2505953 C15.9210995,14.5815911 16.6231039,13.9455872 17.3446084,13.3320833 M11.2110701,20.1031256 C11.9745748,20.6566291 13.0425815,20.5126282 13.6200851,19.7581235 C14.1975887,19.0066188 14.0610879,17.9401121 13.3320833,17.3446084 C13.9455872,16.6231039 14.5815911,15.9210995 15.2505953,15.2520953 L29.2516828,30.9496934 L34.8227176,35.3267208 C34.5737161,35.6027225 34.3367146,35.8877243 34.1342133,36.1997262 L28.476178,31.9606998 L9.69306058,22.5016406 C10.1685636,21.6811355 10.6725667,20.8801305 11.2110701,20.1031256 M9.280558,52.7238295 C8.91605573,51.844824 7.91704948,51.4278214 7.03354396,51.7698236 C6.40354002,50.0043125 5.91603698,48.1713011 5.57403484,46.2872893 C6.50554066,46.1372884 7.15804474,45.282283 7.03354396,44.3402771 C6.91054319,43.3997712 6.06003788,42.7442672 5.12403203,42.8372677 C5.04903156,41.9012619 4.99953125,40.956256 4.99953125,40.00075 C4.99953125,39.043744 5.04903156,38.1002381 5.12403203,37.1627323 C6.06003788,37.2572329 6.91054319,36.6002288 7.03354396,35.6597229 C7.15804474,34.719217 6.50554066,33.8627116 5.57403484,33.7127107 C5.91603698,31.8286989 6.40354002,29.9971875 7.03354396,28.2301764 C7.91704948,28.5721786 8.91605573,28.156676 9.280558,27.2761705 C9.64506028,26.395665 9.23405771,25.3951587 8.36705229,25.0126563 C8.77355483,24.154651 9.21905762,23.3191457 9.69306058,22.5031406 L27.2746705,34.0397127 L33.7937112,36.8267302 C33.6242102,37.1567322 33.4847093,37.4987344 33.3692086,37.8557366 L26.7871674,35.2172201 L6.1920387,30.9421934 L26.1661635,37.5362346 L33.1577072,38.5382409 C33.0827068,38.8952431 33.0557066,39.2687454 33.0362065,39.6437478 L25.9996625,38.8007425 L4.99953125,40.00075 L25.9996625,41.2007575 L33.0362065,40.3562522 C33.0557066,40.7312546 33.0827068,41.1047569 33.1577072,41.4617591 L26.1661635,42.4652654 L6.1920387,49.0593066 L26.7871674,44.7827799 L33.3692086,42.1442634 C33.4862093,42.5012656 33.6242102,42.8432678 33.7937112,43.1732698 L27.2746705,45.9617873 L9.69306058,57.4983594 C9.21905762,56.6808543 8.77355483,55.845349 8.36705229,54.9888437 C9.23405771,54.6048413 9.64506028,53.604335 9.280558,52.7238295 M13.6200851,60.2418765 C13.0425815,59.4888718 11.9745748,59.3448709 11.2110701,59.8968744 C10.6725667,59.1198695 10.1670635,58.3188645 9.69306058,57.4983594 L28.476178,48.0393002 L34.1342133,43.8002738 C34.3367146,44.1122757 34.5737161,44.3987775 34.8227176,44.6747792 L29.2516828,49.0518066 L15.2505953,64.7494047 C14.5815911,64.0789005 13.9455872,63.3768961 13.3320833,62.6553916 C14.0610879,62.0598879 14.1975887,60.9933812 13.6200851,60.2418765 M19.7581235,66.3799149 C19.0066188,65.8024113 17.9401121,65.9389121 17.3446084,66.6679167 C16.6231039,66.0544128 15.9210995,65.4184089 15.2505953,64.7494047 L30.9481934,50.7483172 L35.3267208,45.1772824 C35.6012225,45.4262839 35.8877243,45.6632854 36.1997262,45.8672867 L31.9606998,51.523822 L22.5016406,70.3069394 C21.6811355,69.8329365 20.8801305,69.3274333 20.1031256,68.7889299 C20.6551291,68.0254252 20.5111282,66.9574185 19.7581235,66.3799149 M42.8372677,5.12403203 C42.7427671,6.06003788 43.3997712,6.91054319 44.3402771,7.03504397 C45.280783,7.15804474 46.1372884,6.50554066 46.2872893,5.57403484 C48.1713011,5.91603698 50.0043125,6.40354002 51.7698236,7.03354396 C51.4278214,7.91854949 51.844824,8.91605573 52.7238295,9.280558 C53.604335,9.64506028 54.6048413,9.23405771 54.9888437,8.36705229 C55.845349,8.77355483 56.6808543,9.21905762 57.4983594,9.69306058 L45.9602873,27.2761705 L43.1732698,33.7937112 C42.8432678,33.6242102 42.5012656,33.4862093 42.1442634,33.3692086 L44.7827799,26.7871674 L49.0593066,6.1920387 L42.4637654,26.1661635 L41.4617591,33.1577072 C41.1047569,33.0827068 40.7312546,33.0557066 40.3562522,33.0362065 L41.1992575,25.9996625 L40.00075,4.99953125 L38.7992425,25.9996625 L39.6437478,33.0362065 C39.2687454,33.0557066 38.8952431,33.0827068 38.5382409,33.1577072 L37.5362346,26.1661635 L30.9406934,6.1920387 L35.2172201,26.7871674 L37.8557366,33.3707086 C37.4987344,33.4862093 37.1567322,33.6242102 36.8267302,33.7937112 L34.0397127,27.2761705 L22.5016406,9.69306058 C23.3191457,9.21905762 24.154651,8.77355483 25.0111563,8.36705229 C25.3951587,9.23405771 26.395665,9.64506028 27.2761705,9.280558 C28.155176,8.91605573 28.5721786,7.91854949 28.2301764,7.03354396 C29.9956875,6.40354002 31.8286989,5.91603698 33.7127107,5.57403484 C33.8627116,6.50554066 34.717717,7.15804474 35.6597229,7.03504397 C36.6002288,6.91054319 37.2572329,6.06153788 37.1627323,5.12403203 C38.1002381,5.04903156 39.043744,4.99953125 40.00075,4.99953125 C40.956256,4.99953125 41.8997619,5.04903156 42.8372677,5.12403203 M64.7494047,15.2505953 L49.0503066,29.2516828 L44.6732792,34.8227176 C44.3987775,34.5737161 44.1122757,34.3367146 43.8002738,34.1342133 L48.0393002,28.476178 L57.4983594,9.69306058 C58.3188645,10.1685636 59.1198695,10.6725667 59.8968744,11.2110701 C59.3433709,11.9745748 59.4873718,13.0425815 60.2418765,13.6215851 C60.9933812,14.1975887 62.0598879,14.0610879 62.6553916,13.3320833 C63.3768961,13.9455872 64.0789005,14.5815911 64.7494047,15.2505953 M66.3784149,19.7581235 C66.9574185,20.5126282 68.0239251,20.6566291 68.7889299,20.1031256 C69.3274333,20.8801305 69.8329365,21.6811355 70.3069394,22.5016406 L51.523822,31.9606998 L45.8657867,36.1997262 C45.6632854,35.8877243 45.4262839,35.6012225 45.1772824,35.3267208 L50.7483172,30.9496934 L64.7494047,15.2505953 C65.4184089,15.9210995 66.0544128,16.6231039 66.6679167,17.3446084 C65.9389121,17.9401121 65.8009113,19.0066188 66.3784149,19.7581235 M62.6553916,66.6679167 C62.0598879,65.9389121 60.9933812,65.8024113 60.2418765,66.3799149 C59.4873718,66.9574185 59.3433709,68.0254252 59.8968744,68.7904299 C59.1198695,69.3274333 58.3188645,69.8329365 57.4983594,70.3069394 L48.0393002,51.523822 L43.8002738,45.8657867 C44.1122757,45.6632854 44.3987775,45.4262839 44.6732792,45.1772824 L49.0503066,50.7483172 L64.7494047,64.7494047 C64.0789005,65.4184089 63.3768961,66.0544128 62.6553916,66.6679167 M68.7889299,59.8968744 C68.0239251,59.3448709 66.9574185,59.4888718 66.3784149,60.2418765 C65.8024113,60.9933812 65.9389121,62.0598879 66.6679167,62.6568916 C66.0544128,63.3783961 65.4184089,64.0804005 64.7494047,64.7494047 L50.7483172,49.0518066 L45.1772824,44.6747792 C45.4262839,44.3987775 45.6632854,44.1137757 45.8657867,43.8002738 L51.523822,48.0393002 L70.3069394,57.4983594 C69.8329365,58.3188645 69.3274333,59.1198695 68.7889299,59.8968744 M74.4259652,46.2872893 C74.083963,48.1713011 73.59646,50.0043125 72.966456,51.7698236 C72.0829505,51.4278214 71.0839443,51.844824 70.719442,52.7238295 C70.3549397,53.604335 70.7659423,54.6048413 71.6329477,54.9888437 C71.2264452,55.845349 70.7809424,56.6808543 70.3069394,57.4983594 L52.7238295,45.9617873 L46.2062888,43.1732698 C46.3757898,42.8432678 46.5137907,42.5012656 46.6307914,42.1442634 L53.2128326,44.7827799 L73.8079613,49.0593066 L53.8338365,42.4652654 L46.8422928,41.4617591 C46.9187932,41.1047569 46.9442934,40.7312546 46.9637935,40.3562522 L54.0003375,41.2007575 L75.0004688,40.00075 L54.0003375,38.8007425 L46.9637935,39.6437478 C46.9442934,39.2687454 46.9187932,38.8952431 46.8422928,38.5382409 L53.8338365,37.5362346 L73.8079613,30.9421934 L53.2128326,35.2172201 L46.6307914,37.8557366 C46.5137907,37.4987344 46.3757898,37.1567322 46.2062888,36.8267302 L52.7238295,34.0397127 L70.3069394,22.5016406 C70.7809424,23.3191457 71.2264452,24.154651 71.6329477,25.0111563 C70.7659423,25.3951587 70.3549397,26.395665 70.719442,27.2761705 C71.0839443,28.156676 72.0829505,28.5721786 72.966456,28.2301764 C73.59646,29.9956875 74.083963,31.8286989 74.4259652,33.7127107 C73.4944593,33.8627116 72.8419553,34.719217 72.966456,35.6597229 C73.0894568,36.6002288 73.9399621,37.2572329 74.875968,37.1627323 C74.9509684,38.1002381 75.0004688,39.043744 75.0004688,40.00075 C75.0004688,40.956256 74.9509684,41.9012619 74.875968,42.8372677 C73.9399621,42.7427671 73.0894568,43.3997712 72.966456,44.3402771 C72.8419553,45.282283 73.4944593,46.1372884 74.4259652,46.2872893 M40.00075,0 C17.9086119,0 0,17.9086119 0,40.00075 C0,62.0913881 17.9086119,80 40.00075,80 C62.0913881,80 80,62.0913881 80,40.00075 C80,17.9086119 62.0913881,0 40.00075,0" id="Fill-1"></path>
            </g>
        </g>
    </g>
</svg>