<?xml version="1.0" encoding="UTF-8"?>
<svg width="80px" height="80px" viewBox="0 0 80 80" version="1.1" xmlns="http://www.w3.org/2000/svg" xmlns:xlink="http://www.w3.org/1999/xlink">
    <!-- Generator: Sketch 48.1 (47250) - http://www.bohemiancoding.com/sketch -->
    <title>Artboard 4 Copy</title>
    <desc>Created with Sketch.</desc>
    <defs></defs>
    <g id="Desktop" stroke="none" stroke-width="1" fill="none" fill-rule="evenodd">
        <g id="Artboard-4-Copy" fill="#7A6D75">
            <g id="Page-1">
                <path d="M23.493411,73.031171 L23.7600777,73.2978377 L23.493411,73.031171 Z M64.3899121,61.6547151 L66.4699381,61.6547151 L66.4699381,62.2370481 C66.4699381,63.5407125 65.1766615,67.7235185 61.2162031,67.7235185 C59.5038297,67.7235185 58.0772435,66.6337927 57.1031434,65.3582001 C56.3842854,66.4917029 55.0783952,67.7092972 52.7864093,67.7092972 C51.0050316,67.7092972 49.5595248,67.1274588 48.5844354,65.5183448 C47.8488828,66.5610783 46.5072537,67.7029903 44.3606965,67.7029903 C42.5671997,67.7029903 41.1664593,66.869867 40.2089301,65.4421678 C39.479066,66.5149517 38.1892521,67.6420241 35.9926111,67.6420241 C34.2317615,67.6420241 32.7178687,66.5383242 31.7458708,65.0877472 C31.017367,66.1767311 29.7233485,67.7029903 27.5053137,67.7029903 C25.7442168,67.7029903 24.2906719,66.9176012 23.3176847,65.4657876 C22.5886863,66.5553898 21.2941731,67.7029903 19.076262,67.7029903 C16.7886044,67.7029903 15.5258728,66.1721555 14.8690941,65.2063409 C13.8940046,63.7723349 13.8183223,62.1728666 13.8183223,61.7167943 L13.8183223,61.6547151 L15.9051498,61.6547151 L15.9051498,61.7167943 C15.9051498,61.7558721 15.9099727,62.6838456 16.3355,63.5838711 C16.8611951,64.6958565 17.7576343,65.6161629 19.076262,65.6161629 C21.8209811,65.6161629 22.2100276,62.493527 22.2431695,62.2067505 L22.2431695,61.6686891 L22.4486988,61.6547151 L24.2572826,61.6547151 L24.3196092,62.0928561 C24.3652412,62.4146294 24.8429546,65.2365148 27.5053137,65.2365148 C30.2499092,65.2365148 30.6389557,62.4940216 30.6720976,62.2067505 L30.6720976,61.6686891 L30.8777506,61.6547151 L32.686829,61.6547151 L32.7487846,62.0933507 C32.7941692,62.4150004 33.2696568,65.6161629 35.9316448,65.6161629 C38.676364,65.6161629 39.0654104,62.4940216 39.0985524,62.2068742 L39.0985524,61.6601563 L39.2003277,61.6547151 L41.1281235,61.6547151 L41.1791966,62.1255034 C41.1829066,62.1597582 41.2754071,62.9714878 41.7421145,63.7655333 C42.3157911,64.7416121 43.2578623,65.5551966 44.4216628,65.5551966 C47.1673713,65.5551966 47.4944622,62.4934033 47.5276041,62.2068742 L47.5718757,61.6653502 L49.5501264,61.6547151 L49.6062698,62.1086851 C49.624201,62.2521351 50.0729771,65.6223461 52.7864093,65.6223461 C55.5310048,65.6223461 55.9200513,61.9727785 55.9531932,61.685631 L58.0276543,61.6894646 C58.072297,61.9733968 58.541725,65.6366911 61.2162031,65.6366911 C63.9722993,65.6366911 64.353184,62.4711438 64.3834816,62.2034116 L64.3899121,61.6547151 Z M42.9553805,33.0930648 C41.9833827,33.4467434 40.9886307,33.6145552 40.0097076,33.6145552 L40.0085946,33.6145552 C36.477868,33.6143079 33.1553914,31.4333722 31.8795514,27.9284914 C30.2505275,23.450747 32.5672461,18.4820571 37.0438775,16.8526623 C37.9952235,16.5065271 38.9867602,16.3310481 39.9905397,16.3310481 C43.6151272,16.3310481 46.8820788,18.6161088 48.1199539,22.0169883 C49.7493488,26.4941144 47.4325066,31.4628042 42.9553805,33.0930648 Z M44.4760749,15.3741373 C43.0488704,14.7084547 41.5257028,14.373573 39.9983305,14.373573 C38.7781393,14.373573 37.5552275,14.5871405 36.3757217,15.0165014 C30.8869017,17.0141672 28.0460957,23.1062195 30.0433906,28.5966472 C31.561488,32.7668395 35.5668364,35.5685677 40.0100786,35.5685677 C41.2420179,35.5685677 42.4577572,35.3533926 43.6234127,34.9289783 C49.1133456,32.9305705 51.9539043,26.8385182 49.9558675,21.3489562 C48.9895581,18.693275 47.0434601,16.571327 44.4760749,15.3741373 Z M45.1784856,13.5853397 C44.587125,13.3159998 43.9837691,13.0936522 43.3700254,12.9201518 L45.3425875,7.49971789 L47.1535209,8.15835156 L45.1784856,13.5853397 Z M48.7711678,16.0421694 C48.3133642,15.5937643 47.8189561,15.181469 47.2930138,14.8062728 L51.0045369,10.3824459 L52.4803413,11.621063 L48.7711678,16.0421694 Z M51.2961363,19.5866227 C51.0183873,19.0018163 50.6980979,18.443474 50.3383598,17.9149347 L55.3393259,15.0278785 L56.3034093,16.6959802 L51.2961363,19.5866227 Z M52.4583291,23.7779616 C52.3977339,23.1451736 52.287673,22.5107781 52.1262917,21.8799688 L57.8237326,20.8752 L58.158738,22.7725744 L52.4583291,23.7779616 Z M52.4515276,26.2133974 L58.158738,27.2198975 L57.8237326,29.117272 L52.1094734,28.1096589 C52.2711021,27.4896084 52.3864804,26.8558311 52.4515276,26.2133974 Z M50.3080621,32.0601006 C50.6721285,31.5289644 50.9940255,30.9709931 51.2722692,30.3921226 L56.3034093,33.2966155 L55.3393259,34.9645935 L50.3080621,32.0601006 Z M48.746806,33.9214889 L52.4803413,38.3712853 L51.0045369,39.6101497 L47.2703833,35.1592404 C47.7976859,34.7825603 48.290981,34.3684101 48.746806,33.9214889 Z M44.2800677,36.7324919 C44.5821785,36.6225547 44.8773641,36.5019825 45.1656245,36.3716408 L47.1533973,41.8339967 L45.3427112,42.4928777 L43.3538255,37.0278012 C43.6650874,36.9408655 43.974247,36.8437894 44.2800677,36.7324919 Z M40.0095839,37.4878307 C40.3287603,37.4878307 40.6468238,37.4734857 40.9636506,37.4491239 L40.9636506,43.2652821 L39.0364731,43.2652821 L39.0364731,37.4497422 C39.3583701,37.4749697 39.6829877,37.4878307 40.0095839,37.4878307 Z M34.8374671,36.3632316 C35.4206658,36.6286143 36.025382,36.8505909 36.6471638,37.0248332 L34.6565468,42.4928777 L32.8458607,41.8339967 L34.8374671,36.3632316 Z M31.2586352,33.9148111 C31.7199014,34.3640818 32.2140621,34.7771191 32.7371602,35.1502129 L28.9948448,39.6101497 L27.518793,38.3714089 L31.2586352,33.9148111 Z M28.7236499,30.3942249 C29.0048615,30.9780419 29.3291082,31.5342819 29.6919379,32.0597296 L24.6606741,34.9645935 L23.6965907,33.2966155 L28.7236499,30.3942249 Z M27.5459991,26.2137684 C27.608944,26.8464327 27.7214781,27.4802099 27.885209,28.1105246 L22.1762674,29.117272 L21.841262,27.2198975 L27.5459991,26.2137684 Z M27.8784075,21.8808344 C27.7191285,22.5013796 27.606718,23.1356515 27.5440205,23.7783325 L21.841262,22.7725744 L22.1762674,20.8752 L27.8784075,21.8808344 Z M29.6686891,17.9193866 C29.3064777,18.4516358 28.9860646,19.0103491 28.7096759,19.5902089 L23.6965907,16.6959802 L24.6606741,15.0278785 L29.6686891,17.9193866 Z M31.2313055,16.0451373 L27.518793,11.621063 L28.9948448,10.3825696 L32.7043893,14.8033049 C32.1779523,15.1813453 31.6861411,15.5969795 31.2313055,16.0451373 Z M35.7194376,13.2127405 C35.4122566,13.3245326 35.1123718,13.4472071 34.8195358,13.5801458 L32.8458607,8.15835156 L34.6565468,7.49971789 L36.6304692,12.9216358 C36.3245249,13.0077058 36.0204355,13.1031743 35.7194376,13.2127405 Z M39.9984542,12.4543101 C39.6768045,12.4543101 39.3560205,12.4689024 39.0364731,12.4937588 L39.0364731,6.72731348 L40.9636506,6.72731348 L40.9636506,12.4921512 C40.6436085,12.4674184 40.3218352,12.4543101 39.9984542,12.4543101 Z M40.0000618,2.08682748 C60.9053121,2.08682748 77.9131725,19.0946879 77.9131725,40.0000618 C77.9131725,44.089378 77.2597327,48.0284427 76.0563598,51.7214163 L75.9989798,51.8266542 C75.5375899,52.6746172 74.1635609,54.6466846 71.376796,54.6466846 C66.8727113,54.6466846 66.1547189,49.2972338 66.1263999,49.1111197 L66.0839832,48.6198032 L64.0936135,48.6159696 L64.0515678,49.2367622 C64.0113771,49.5711492 63.3639968,55.2212269 58.8250388,55.2212269 C54.338638,55.2212269 53.6124839,49.3948046 53.5836702,49.1629349 L53.5134291,48.6159696 L51.5594166,48.6159696 L51.5048809,49.2606293 C51.4648138,49.5950163 50.8173098,54.6466846 46.2783519,54.6466846 C41.632301,54.6466846 41.0562748,49.3883741 41.0340153,49.1806188 L40.972678,48.6159696 L39.013348,48.6159696 L38.9531237,49.2606293 C38.9130566,49.5950163 38.2655527,54.6466846 33.7267183,54.6466846 C29.2328977,54.6466846 28.5103298,49.3261711 28.4818871,49.1171792 L28.4368735,48.6159696 L26.4466275,48.6159696 L26.4048291,49.227611 C26.3646383,49.5619981 25.7172581,54.6466846 21.1792894,54.6466846 C16.6995664,54.6466846 15.9591909,49.3650016 15.9298826,49.1560097 L15.8673087,48.6159696 L13.8975909,48.6159696 L13.8531956,49.2684201 C13.8130048,49.6028072 13.1655009,54.6466846 8.62753221,54.6466846 C5.91001909,54.6466846 4.6476585,53.095569 4.13717413,52.171429 L4.0226614,51.9637974 C2.76809163,48.2010774 2.08682748,44.178787 2.08682748,40.0000618 C2.08682748,19.0946879 19.0946879,2.08682748 40.0000618,2.08682748 Z M40.0000618,77.9131725 C24.8940278,77.9131725 11.8248611,69.0317584 5.73528207,56.2173392 C6.53761313,56.5328057 7.49254539,56.7335121 8.62753221,56.7335121 C12.1808893,56.7335121 14.0360944,54.2249909 14.9432924,52.553303 C15.9140536,54.3343098 17.7686404,56.7335121 21.1792894,56.7335121 C24.9859101,56.7335121 26.5862439,54.1852948 27.4940603,52.5142252 C28.4632139,54.29449 30.3160693,56.7335121 33.7267183,56.7335121 C37.6583632,56.7335121 39.0974394,54.2535573 40.0106969,52.6041288 C40.9593223,54.3623815 42.80179,56.7335121 46.2783519,56.7335121 C50.1663433,56.7335121 51.6003494,54.3054961 52.5244893,52.671031 C53.4801635,54.648045 55.3387076,57.308178 58.8250388,57.308178 C62.7564363,57.308178 64.3279565,54.0940309 65.215863,52.3828942 C66.1988669,53.9712327 68.0452919,56.7335121 71.376796,56.7335121 C72.5149981,56.7335121 73.4827914,56.5000348 74.3002095,56.1412859 C68.2263358,68.9965142 55.1357752,77.9131725 40.0000618,77.9131725 Z M78.2104604,51.8421122 C79.3731479,48.0984364 80,44.121036 80,40.0000618 C80,17.9439957 62.0560043,0 40.0000618,0 C17.9439957,0 0,17.9439957 0,40.0000618 C0,44.2565716 0.67087639,48.3588725 1.90813322,52.2097648 L2.10005951,52.7996414 C7.44963403,68.597822 22.4182775,80 40.0000618,80 C57.6728627,80 72.7032145,68.4784864 77.9801983,52.5530557 L78.2104604,51.8421122 Z" id="Fill-1"></path>
            </g>
        </g>
    </g>
</svg>